<svg width="15" height="16" viewBox="0 0 15 16" fill="none" xmlns="http://www.w3.org/2000/svg">
<path fill-rule="evenodd" clip-rule="evenodd" d="M5.43926 3.31281C3.66065 3.31281 2.21881 4.75465 2.21881 6.53325C2.21881 7.35784 2.52919 8.11079 3.03892 8.68031C3.17072 8.82756 3.39693 8.84009 3.54419 8.70829C3.69145 8.5765 3.70398 8.35028 3.57218 8.20303C3.17534 7.75964 2.93447 7.175 2.93447 6.53325C2.93447 5.14989 4.0559 4.02846 5.43926 4.02846H7.34767C8.73103 4.02846 9.85246 5.14989 9.85246 6.53325C9.85246 7.91661 8.73103 9.03804 7.34767 9.03804H6.39346C6.19584 9.03804 6.03564 9.19825 6.03564 9.39587C6.03564 9.59349 6.19584 9.7537 6.39346 9.7537H7.34767C9.12627 9.7537 10.5681 8.31186 10.5681 6.53325C10.5681 4.75465 9.12627 3.31281 7.34767 3.31281H5.43926Z" fill="#413B89"/>
<path d="M4.84151 9.39507C4.84151 8.01171 5.96294 6.89028 7.3463 6.89028H8.30051C8.49813 6.89028 8.65833 6.73007 8.65833 6.53245C8.65833 6.33483 8.49813 6.17462 8.30051 6.17462H7.3463C5.5677 6.17462 4.12585 7.61647 4.12585 9.39507C4.12585 11.1737 5.5677 12.6155 7.3463 12.6155H9.25471C11.0333 12.6155 12.4752 11.1737 12.4752 9.39507C12.4752 8.57048 12.1648 7.81754 11.655 7.24802C11.5233 7.10076 11.297 7.08823 11.1498 7.22003C11.0025 7.35182 10.99 7.57804 11.1218 7.7253C11.5186 8.16868 11.7595 8.75332 11.7595 9.39507C11.7595 10.7784 10.6381 11.8999 9.25471 11.8999H7.3463C5.96294 11.8999 4.84151 10.7784 4.84151 9.39507Z" fill="#FFEDDE"/>
</svg>
