<svg width="50" height="49" viewBox="0 0 50 49" fill="none" xmlns="http://www.w3.org/2000/svg">
<path opacity="0.5" d="M22.217 11.7764C24.3353 9.24185 25.3944 7.97458 26.6119 8.16977C27.8294 8.36497 28.399 9.89335 29.5382 12.9501L29.8329 13.7409C30.1566 14.6096 30.3185 15.0439 30.6334 15.3638C30.9483 15.6838 31.3807 15.8531 32.2454 16.1918L33.0326 16.5001C36.0755 17.6919 37.5969 18.2878 37.7704 19.5057C37.9439 20.7237 36.6546 21.7571 34.076 23.824L33.4089 24.3587C32.6761 24.946 32.3097 25.2397 32.0976 25.6417C31.8856 26.0436 31.8518 26.5084 31.7843 27.438L31.7228 28.2842C31.4851 31.5553 31.3663 33.1909 30.256 33.7484C29.1457 34.306 27.7793 33.4163 25.0464 31.6369L24.3394 31.1766C23.5628 30.6709 23.1745 30.4181 22.7285 30.3466C22.2825 30.2751 21.8293 30.393 20.9229 30.6288L20.0976 30.8435C16.9079 31.6734 15.313 32.0883 14.4533 31.215C13.5936 30.3416 14.0384 28.7583 14.928 25.5917L15.1582 24.7725C15.411 23.8726 15.5374 23.4227 15.4739 22.9766C15.4103 22.5304 15.164 22.1385 14.6713 21.3547L14.2228 20.6411C12.489 17.8829 11.6222 16.5038 12.2011 15.4065C12.7801 14.3091 14.4214 14.2203 17.7041 14.0426L18.5534 13.9967C19.4862 13.9462 19.9526 13.9209 20.3593 13.7167C20.7661 13.5125 21.067 13.1523 21.669 12.4321L22.217 11.7764Z" fill="#2684FC"/>
<path d="M30.1399 22.1414C28.5512 20.2405 27.7568 19.29 26.8437 19.4364C25.9305 19.5828 25.5034 20.7291 24.649 23.0217L24.4279 23.6148C24.1852 24.2663 24.0638 24.592 23.8276 24.832C23.5914 25.0719 23.2671 25.1989 22.6186 25.4529L22.0282 25.6842C19.746 26.578 18.6049 27.0249 18.4748 27.9384C18.3447 28.8519 19.3116 29.6269 21.2456 31.1771L21.746 31.5781C22.2955 32.0186 22.5703 32.2389 22.7294 32.5403C22.8884 32.8418 22.9138 33.1904 22.9644 33.8876L23.0105 34.5223C23.1888 36.9756 23.2779 38.2022 24.1106 38.6204C24.9433 39.0386 25.9682 38.3713 28.0178 37.0368L28.5481 36.6915C29.1305 36.3123 29.4217 36.1227 29.7562 36.069C30.0907 36.0154 30.4306 36.1038 31.1105 36.2807L31.7294 36.4417C34.1217 37.0641 35.3179 37.3753 35.9626 36.7203C36.6074 36.0653 36.2738 34.8778 35.6066 32.5029L35.434 31.8884C35.2444 31.2136 35.1496 30.8761 35.1972 30.5415C35.2449 30.2069 35.4296 29.913 35.7991 29.3251L36.1355 28.7899C37.4358 26.7213 38.086 25.6869 37.6518 24.8639C37.2175 24.0409 35.9865 23.9743 33.5245 23.8411L32.8876 23.8066C32.188 23.7687 31.8382 23.7498 31.5331 23.5966C31.2281 23.4434 31.0023 23.1733 30.5509 22.6332L30.1399 22.1414Z" fill="#413B89"/>
</svg>
