<svg width="15" height="16" viewBox="0 0 15 16" fill="none" xmlns="http://www.w3.org/2000/svg">
<path fill-rule="evenodd" clip-rule="evenodd" d="M5.50553 3.31281C3.72693 3.31281 2.2851 4.75465 2.2851 6.53325C2.2851 7.35784 2.59547 8.11079 3.1052 8.68031C3.237 8.82756 3.46322 8.84009 3.61047 8.70829C3.75773 8.5765 3.77026 8.35028 3.63846 8.20303C3.24162 7.75964 3.00075 7.175 3.00075 6.53325C3.00075 5.14989 4.12218 4.02846 5.50553 4.02846H7.41394C8.79729 4.02846 9.91872 5.14989 9.91872 6.53325C9.91872 7.91661 8.79729 9.03804 7.41394 9.03804H6.45974C6.26211 9.03804 6.10191 9.19825 6.10191 9.39587C6.10191 9.59349 6.26211 9.7537 6.45974 9.7537H7.41394C9.19254 9.7537 10.6344 8.31186 10.6344 6.53325C10.6344 4.75465 9.19254 3.31281 7.41394 3.31281H5.50553Z" fill="#413B89"/>
<path d="M4.90797 9.39507C4.90797 8.01171 6.0294 6.89028 7.41276 6.89028H8.36696C8.56458 6.89028 8.72479 6.73007 8.72479 6.53245C8.72479 6.33483 8.56458 6.17462 8.36696 6.17462H7.41276C5.63416 6.17462 4.19232 7.61647 4.19232 9.39507C4.19232 11.1737 5.63416 12.6155 7.41276 12.6155H9.32117C11.0998 12.6155 12.5416 11.1737 12.5416 9.39507C12.5416 8.57048 12.2312 7.81754 11.7215 7.24802C11.5897 7.10076 11.3635 7.08823 11.2162 7.22003C11.069 7.35182 11.0564 7.57804 11.1882 7.7253C11.5851 8.16868 11.826 8.75332 11.826 9.39507C11.826 10.7784 10.7045 11.8999 9.32117 11.8999H7.41276C6.0294 11.8999 4.90797 10.7784 4.90797 9.39507Z" fill="#FFEDDE"/>
</svg>
