<svg width="252" height="21" viewBox="0 0 252 21" fill="none" xmlns="http://www.w3.org/2000/svg">
<g clip-path="url(#clip0_1_287)">
<path d="M23.0402 1.69347C23.5462 0.955183 24.6357 0.955181 25.1417 1.69347L27.4289 5.03072C27.5945 5.27241 27.8384 5.44961 28.1195 5.53246L32.0001 6.67642C32.8587 6.92949 33.1954 7.96573 32.6496 8.67509L30.1824 11.8816C30.0037 12.1138 29.9106 12.4005 29.9186 12.6934L30.0299 16.7377C30.0545 17.6324 29.173 18.2728 28.3297 17.9729L24.5177 16.6174C24.2417 16.5192 23.9402 16.5192 23.6641 16.6174L19.8522 17.9729C19.0089 18.2728 18.1274 17.6324 18.152 16.7377L18.2633 12.6934C18.2713 12.4005 18.1782 12.1138 17.9995 11.8816L15.5323 8.67509C14.9865 7.96573 15.3232 6.92949 16.1817 6.67641L20.0624 5.53246C20.3435 5.44961 20.5874 5.27241 20.753 5.03072L23.0402 1.69347Z" fill="#FFB525"/>
<path d="M51.9146 1.69347C52.4206 0.955183 53.5101 0.955181 54.0161 1.69347L56.3033 5.03072C56.4689 5.27241 56.7128 5.44961 56.9939 5.53246L60.8746 6.67642C61.7331 6.92949 62.0698 7.96573 61.524 8.67509L59.0568 11.8816C58.8782 12.1138 58.785 12.4005 58.7931 12.6934L58.9043 16.7377C58.9289 17.6324 58.0474 18.2728 57.2041 17.9729L53.3922 16.6174C53.1161 16.5192 52.8146 16.5192 52.5386 16.6174L48.7266 17.9729C47.8833 18.2728 47.0018 17.6324 47.0264 16.7377L47.1377 12.6934C47.1457 12.4005 47.0526 12.1138 46.8739 11.8816L44.4068 8.67509C43.861 7.96573 44.1977 6.92949 45.0562 6.67641L48.9369 5.53246C49.2179 5.44961 49.4618 5.27241 49.6274 5.03072L51.9146 1.69347Z" fill="#FFB525"/>
<path d="M80.7888 1.69347C81.2948 0.955183 82.3843 0.955181 82.8903 1.69347L85.1775 5.03072C85.3431 5.27241 85.587 5.44961 85.8681 5.53246L89.7487 6.67642C90.6073 6.92949 90.944 7.96573 90.3982 8.67509L87.931 11.8816C87.7523 12.1138 87.6592 12.4005 87.6672 12.6934L87.7785 16.7377C87.8031 17.6324 86.9216 18.2728 86.0783 17.9729L82.2663 16.6174C81.9903 16.5192 81.6888 16.5192 81.4127 16.6174L77.6008 17.9729C76.7575 18.2728 75.876 17.6324 75.9006 16.7377L76.0119 12.6934C76.0199 12.4005 75.9268 12.1138 75.7481 11.8816L73.2809 8.67509C72.7351 7.96573 73.0718 6.92949 73.9303 6.67641L77.811 5.53246C78.0921 5.44961 78.336 5.27241 78.5016 5.03072L80.7888 1.69347Z" fill="#FFB525"/>
<path d="M109.662 1.69347C110.168 0.955183 111.258 0.955181 111.764 1.69347L114.051 5.03072C114.216 5.27241 114.46 5.44961 114.741 5.53246L118.622 6.67642C119.481 6.92949 119.817 7.96573 119.271 8.67509L116.804 11.8816C116.626 12.1138 116.532 12.4005 116.541 12.6934L116.652 16.7377C116.676 17.6324 115.795 18.2728 114.952 17.9729L111.14 16.6174C110.864 16.5192 110.562 16.5192 110.286 16.6174L106.474 17.9729C105.631 18.2728 104.749 17.6324 104.774 16.7377L104.885 12.6934C104.893 12.4005 104.8 12.1138 104.621 11.8816L102.154 8.67509C101.608 7.96573 101.945 6.92949 102.804 6.67641L106.684 5.53246C106.965 5.44961 107.209 5.27241 107.375 5.03072L109.662 1.69347Z" fill="#FFB525"/>
<path d="M138.537 1.69347C139.043 0.955183 140.132 0.955181 140.638 1.69347L142.925 5.03072C143.091 5.27241 143.335 5.44961 143.616 5.53246L147.497 6.67642C148.355 6.92949 148.692 7.96573 148.146 8.67509L145.679 11.8816C145.5 12.1138 145.407 12.4005 145.415 12.6934L145.526 16.7377C145.551 17.6324 144.67 18.2728 143.826 17.9729L140.014 16.6174C139.738 16.5192 139.437 16.5192 139.161 16.6174L135.349 17.9729C134.505 18.2728 133.624 17.6324 133.649 16.7377L133.76 12.6934C133.768 12.4005 133.675 12.1138 133.496 11.8816L131.029 8.67509C130.483 7.96573 130.82 6.92949 131.678 6.67641L135.559 5.53246C135.84 5.44961 136.084 5.27241 136.25 5.03072L138.537 1.69347Z" fill="#49454F" fill-opacity="0.8"/>
</g>
<defs>
<clipPath id="clip0_1_287">
<rect width="251.374" height="20.3817" fill="white" transform="translate(0.312897 0.160095)"/>
</clipPath>
</defs>
</svg>
