<svg width="49" height="47" viewBox="0 0 49 47" fill="none" xmlns="http://www.w3.org/2000/svg">
<path d="M0.536316 0.779602H40.6906C45.1371 0.779602 48.7418 4.38421 48.7418 8.83072V38.3515C48.7418 42.798 45.1371 46.4026 40.6906 46.4026H0.536316V0.779602Z" fill="#FFCB00" fill-opacity="0.7"/>
<path d="M22.0923 17.2471C23.2254 15.2145 23.792 14.1981 24.639 14.1981C25.486 14.1981 26.0526 15.2145 27.1857 17.2471L27.4788 17.773C27.8008 18.3506 27.9618 18.6395 28.2128 18.83C28.4639 19.0206 28.7765 19.0913 29.4018 19.2328L29.971 19.3616C32.1714 19.8594 33.2716 20.1084 33.5333 20.9501C33.7951 21.7918 33.045 22.6689 31.545 24.423L31.1569 24.8768C30.7306 25.3753 30.5175 25.6245 30.4216 25.9328C30.3257 26.2412 30.3579 26.5737 30.4224 27.2387L30.4811 27.8442C30.7078 30.1846 30.8212 31.3548 30.136 31.875C29.4507 32.3952 28.4206 31.9209 26.3604 30.9723L25.8274 30.7269C25.242 30.4574 24.9493 30.3226 24.639 30.3226C24.3287 30.3226 24.036 30.4574 23.4505 30.7269L22.9175 30.9723C20.8574 31.9209 19.8273 32.3952 19.142 31.875C18.4567 31.3548 18.5701 30.1846 18.7969 27.8442L18.8556 27.2387C18.92 26.5737 18.9523 26.2412 18.8564 25.9328C18.7605 25.6245 18.5474 25.3753 18.1211 24.8768L17.733 24.423C16.2329 22.6689 15.4829 21.7918 15.7447 20.9501C16.0064 20.1084 17.1066 19.8594 19.3069 19.3616L19.8762 19.2328C20.5015 19.0913 20.8141 19.0206 21.0651 18.83C21.3162 18.6395 21.4772 18.3507 21.7991 17.773L22.0923 17.2471Z" fill="white"/>
</svg>
