<svg width="49" height="46" viewBox="0 0 49 46" fill="none" xmlns="http://www.w3.org/2000/svg">
<path d="M0.536316 0.322693H40.6906C45.1371 0.322693 48.7418 3.9273 48.7418 8.37381V37.8946C48.7418 42.3411 45.1371 45.9457 40.6906 45.9457H0.536316V0.322693Z" fill="#FFA78D"/>
<path opacity="0.5" d="M25.3501 13.7412H23.5609C21.8741 13.7412 21.0307 13.7412 20.5067 14.2652C19.9827 14.7893 19.9827 15.6327 19.9827 17.3195V19.1086V20.4505H28.9284V19.1086V17.3195C28.9284 15.6327 28.9284 14.7893 28.4043 14.2652C27.8803 13.7412 27.0369 13.7412 25.3501 13.7412Z" fill="white"/>
<path fill-rule="evenodd" clip-rule="evenodd" d="M25.7397 17.1255C24.9388 16.6888 23.971 16.6888 23.1701 17.1255L18.8814 19.464C18.019 19.9343 17.4824 20.838 17.4824 21.8202V26.2373C17.4824 27.2195 18.019 28.1233 18.8814 28.5935L23.1701 30.932C23.971 31.3687 24.9388 31.3687 25.7397 30.932L30.0284 28.5935C30.8908 28.1233 31.4274 27.2195 31.4274 26.2373V21.8202C31.4274 20.838 30.8908 19.9343 30.0284 19.464L25.7397 17.1255ZM24.4551 21.3451C24.201 21.3451 24.031 21.65 23.6911 22.2598L23.6031 22.4175C23.5065 22.5908 23.4582 22.6775 23.3829 22.7346C23.3076 22.7918 23.2138 22.813 23.0262 22.8555L22.8555 22.8941C22.1954 23.0435 21.8653 23.1181 21.7868 23.3707C21.7083 23.6232 21.9333 23.8863 22.3833 24.4125L22.4997 24.5487C22.6276 24.6982 22.6915 24.773 22.7203 24.8655C22.7491 24.958 22.7394 25.0577 22.7201 25.2573L22.7025 25.4389C22.6344 26.141 22.6004 26.4921 22.806 26.6481C23.0116 26.8042 23.3206 26.6619 23.9386 26.3773L24.0985 26.3037C24.2742 26.2228 24.362 26.1824 24.4551 26.1824C24.5482 26.1824 24.636 26.2228 24.8116 26.3037L24.9715 26.3773C25.5896 26.6619 25.8986 26.8042 26.1042 26.6481C26.3098 26.4921 26.2757 26.141 26.2077 25.4389L26.1901 25.2573C26.1708 25.0578 26.1611 24.958 26.1899 24.8655C26.2186 24.773 26.2826 24.6982 26.4104 24.5487L26.5269 24.4125C26.9769 23.8863 27.2019 23.6232 27.1234 23.3707C27.0448 23.1181 26.7148 23.0435 26.0547 22.8941L25.8839 22.8555C25.6963 22.813 25.6025 22.7918 25.5272 22.7346C25.4519 22.6775 25.4036 22.5908 25.307 22.4175L25.2191 22.2598C24.8792 21.65 24.7092 21.3451 24.4551 21.3451Z" fill="white"/>
</svg>
