<svg width="36" height="19" viewBox="0 0 36 19" fill="none" xmlns="http://www.w3.org/2000/svg">
<path d="M13.5882 17.3254H22.4118C29.7647 17.3254 32.7059 15.8058 32.7059 12.0069V7.44819C32.7059 3.64927 29.7647 2.1297 22.4118 2.1297H13.5882C6.23531 2.1297 3.29413 3.64927 3.29413 7.44819V12.0069C3.29413 15.8058 6.23531 17.3254 13.5882 17.3254Z" stroke="white" stroke-width="1.33333" stroke-linecap="round" stroke-linejoin="round"/>
<path d="M24.2941 10.9508C22.6323 11.8093 20.25 12.0753 18.147 11.7334L14.3382 13.6936C14.0735 13.838 13.5294 13.9291 13.1323 13.8988L11.3676 13.7772C10.7794 13.7392 10.25 13.4505 10.1618 13.1542L9.92646 12.2424C9.86764 12.0449 10.0588 11.7638 10.3235 11.6194L14.1176 9.65915C13.4706 8.57266 13.9706 7.34182 15.6323 6.48326C18.0147 5.25241 21.897 5.25241 24.2941 6.48326C26.6764 7.70651 26.6764 9.71234 24.2941 10.9508Z" stroke="white" stroke-width="1.33333" stroke-miterlimit="10" stroke-linecap="round" stroke-linejoin="round"/>
<path d="M15.7205 12.9794L14.4705 12.326" stroke="white" stroke-width="1.33333" stroke-miterlimit="10" stroke-linecap="round" stroke-linejoin="round"/>
<path d="M20.0507 8.73981H20.0646" stroke="white" stroke-width="1.77778" stroke-linecap="round" stroke-linejoin="round"/>
</svg>
