<svg width="36" height="19" viewBox="0 0 36 19" fill="none" xmlns="http://www.w3.org/2000/svg">
<path d="M13.5882 17.3253H22.4118C29.7647 17.3253 32.7059 15.8058 32.7059 12.0068V7.44813C32.7059 3.64921 29.7647 2.12964 22.4118 2.12964H13.5882C6.23531 2.12964 3.29413 3.64921 3.29413 7.44813V12.0068C3.29413 15.8058 6.23531 17.3253 13.5882 17.3253Z" stroke="white" stroke-width="1.33333" stroke-linecap="round" stroke-linejoin="round"/>
<path d="M24.2941 10.9508C22.6323 11.8093 20.25 12.0752 18.147 11.7333L14.3382 13.6936C14.0735 13.8379 13.5294 13.9291 13.1323 13.8987L11.3676 13.7772C10.7794 13.7392 10.25 13.4504 10.1618 13.1541L9.92646 12.2424C9.86764 12.0448 10.0588 11.7637 10.3235 11.6194L14.1176 9.65912C13.4706 8.57263 13.9706 7.34178 15.6323 6.48323C18.0147 5.25238 21.897 5.25238 24.2941 6.48323C26.6764 7.70648 26.6764 9.71231 24.2941 10.9508Z" stroke="white" stroke-width="1.33333" stroke-miterlimit="10" stroke-linecap="round" stroke-linejoin="round"/>
<path d="M15.7205 12.9794L14.4705 12.326" stroke="white" stroke-width="1.33333" stroke-miterlimit="10" stroke-linecap="round" stroke-linejoin="round"/>
<path d="M20.0507 8.73978H20.0646" stroke="white" stroke-width="1.77778" stroke-linecap="round" stroke-linejoin="round"/>
</svg>
