<svg width="34" height="34" viewBox="0 0 34 34" fill="none" xmlns="http://www.w3.org/2000/svg">
<path fill-rule="evenodd" clip-rule="evenodd" d="M11.766 16.8001C11.766 20.0342 15.2409 22.9012 18.8356 21.5281C19.9723 21.095 20.9396 20.1463 21.4805 19.0492C22.1643 17.6586 22.1983 16.013 21.5728 14.6026C21.2804 13.9408 20.8528 13.4208 20.313 12.936C17.1603 10.1054 11.766 12.2358 11.766 16.8001Z" fill="#413B89"/>
<path fill-rule="evenodd" clip-rule="evenodd" d="M14.2538 10.2153C14.2538 11.0112 14.6661 10.2153 17.1802 10.2153C17.9992 10.2153 18.8291 10.3923 19.3755 10.6539C20.0647 9.35452 18.6807 8.77959 16.8878 7.58136C15.3817 8.88952 14.2538 8.81147 14.2538 10.2153Z" fill="#413B89"/>
<path fill-rule="evenodd" clip-rule="evenodd" d="M20.9851 11.2397V11.6784C21.7766 11.8894 22.8539 13.7099 23.1331 14.5068C23.2815 14.9323 23.4365 15.4687 23.4728 15.9227C25.0492 15.7897 24.7909 13.8143 24.7909 12.1181C23.7542 11.8751 22.9166 10.9473 22.0097 10.9473C21.4864 10.9473 21.4919 11.1188 20.9851 11.2397Z" fill="#413B89"/>
<path fill-rule="evenodd" clip-rule="evenodd" d="M8.98529 12.1181C8.99738 12.6216 9.08862 12.6886 9.1249 13.1503C9.20955 14.2562 8.77642 15.5655 10.3034 15.9228C10.4968 15.5204 10.521 15.0389 10.7002 14.5629C11.6742 11.9829 12.702 12.3006 12.7911 11.2398C12.2524 11.0958 12.1007 10.4856 10.4232 11.5036C10.0351 11.7399 9.45689 12.0082 8.98529 12.1181Z" fill="#413B89"/>
<path fill-rule="evenodd" clip-rule="evenodd" d="M20.9851 22.2151C22.3339 22.9264 22.8462 22.291 23.6817 21.8381C24.8744 21.1906 24.7909 21.9788 24.7909 19.7274C24.7909 18.5985 24.5424 17.7652 23.4728 17.6783C23.3805 18.815 22.5923 20.3804 21.7568 21.2302C21.3907 21.6017 21.1236 21.6996 20.9851 22.2151Z" fill="#413B89"/>
<path fill-rule="evenodd" clip-rule="evenodd" d="M14.2538 23.3859C14.2538 24.1203 14.8266 24.5193 15.3037 24.8238L16.8878 25.8737C19.3469 24.2269 19.5217 24.7051 19.5217 22.9462C18.5345 22.9693 18.4894 23.3859 16.7416 23.3859C15.6972 23.3859 15.2179 22.9693 14.2538 22.9462V23.3859Z" fill="#413B89"/>
<path fill-rule="evenodd" clip-rule="evenodd" d="M8.98529 21.3368L11.6203 22.5076C12.5624 22.5076 12.4536 22.5724 12.7911 22.0689C12.6306 21.4665 12.2491 21.7029 11.2949 20.1968C10.9091 19.5889 10.4693 18.5985 10.4496 17.6783C9.89661 17.6893 9.87682 17.6619 9.56682 17.9686C9.37774 18.1543 9.18866 18.5138 9.14249 18.8601C9.09192 19.2295 9.14579 19.7802 9.13699 20.1715C9.1205 20.8531 9.03146 20.7883 8.98529 21.3368Z" fill="#413B89"/>
<path fill-rule="evenodd" clip-rule="evenodd" d="M20.9851 23.9708C20.7806 24.8601 20.4563 25.2228 19.8286 25.7406C19.5197 26.0001 19.5022 25.8451 19.3757 26.3123C20.0903 26.6552 21.8162 26.752 22.888 26.752C23.1441 26.2199 23.2618 25.8 23.5773 25.2426C24.017 24.4632 24.0587 24.5567 24.0587 23.3859C23.6025 23.6278 23.2398 23.8026 22.7165 23.951C21.7513 24.2214 21.9569 23.9708 20.9851 23.9708Z" fill="#413B89"/>
<path fill-rule="evenodd" clip-rule="evenodd" d="M19.3757 7.28887C19.7869 7.90227 20.0034 7.76926 20.4311 8.28153C20.7916 8.71465 20.8763 9.14558 21.1324 9.62927C22.3109 9.06423 23.2651 9.88321 24.0587 10.069C24.0587 8.88175 24.017 9.03345 23.5355 8.25075C23.1892 7.68241 23.0793 7.20642 22.7418 6.70294C21.3149 7.03493 20.5179 6.52266 19.3757 7.28887Z" fill="#413B89"/>
<path fill-rule="evenodd" clip-rule="evenodd" d="M10.0097 9.92278C10.8496 9.85243 10.8045 9.16537 12.7909 9.62927C13.2296 7.74398 14.3102 8.02869 14.5465 7.14156C13.5242 6.64908 12.5051 6.97557 11.3267 6.70294C10.8858 7.36142 10.0097 9.08951 10.0097 9.92278Z" fill="#413B89"/>
<path fill-rule="evenodd" clip-rule="evenodd" d="M11.1805 26.7519C12.0236 26.7519 13.8584 26.6189 14.5465 26.4584V26.0198C13.1911 25.6592 12.9382 23.9707 12.6447 23.9707C11.9082 23.9707 11.5938 24.3709 10.0097 23.5321C10.0097 25.0887 10.8749 25.4405 11.1805 26.7519Z" fill="#413B89"/>
<path fill-rule="evenodd" clip-rule="evenodd" d="M5.47302 16.8C8.12233 20.7542 7.41768 19.313 7.78815 18.0895C7.99262 17.4134 8.37847 17.2848 8.54666 16.6538C8.08716 15.9678 7.66832 15.9337 7.66832 14.1661C6.86583 14.2342 6.35796 15.4775 5.47302 16.8Z" fill="#413B89"/>
<path fill-rule="evenodd" clip-rule="evenodd" d="M25.2295 16.8C25.4999 17.2001 25.7725 17.3211 25.9726 17.8135C26.2233 18.4302 25.9748 18.8524 26.254 19.435C27.0356 19.2261 27.1939 18.3511 27.8041 17.4728C28.1108 17.0308 28.1756 17.132 28.302 16.6538C27.9876 16.1811 27.6271 15.8436 27.3292 15.2863C27.0224 14.7179 26.8642 14.2287 26.1078 14.1661C26.1078 15.925 25.9297 15.7568 25.2295 16.8Z" fill="#413B89"/>
<path fill-rule="evenodd" clip-rule="evenodd" d="M5.32642 10.069C5.54188 10.9924 5.91234 12.1764 5.91234 13.2878C6.62359 13.0965 6.39054 12.8184 7.52172 12.5567C7.45576 11.7686 6.87423 10.9386 8.54626 10.8001V9.04449L5.32642 10.069Z" fill="#413B89"/>
<path fill-rule="evenodd" clip-rule="evenodd" d="M5.32642 23.5322C6.56862 23.5596 7.53271 24.3204 8.54626 24.5567C8.37917 22.5439 9.02006 22.8561 7.52172 22.5076C7.30625 21.582 7.30625 21.9701 7.52172 21.0444L5.91234 20.3123C5.87607 21.9305 5.37698 22.9242 5.32642 23.5322Z" fill="#413B89"/>
<path fill-rule="evenodd" clip-rule="evenodd" d="M14.5464 5.23977C14.6365 5.57506 14.5376 5.38598 14.7739 5.59704L16.0096 6.26431C16.502 5.93453 17.0572 5.27605 17.9124 6.55673C18.4016 6.22694 18.6435 5.73775 19.3756 5.67839C19.258 5.23647 18.4522 4.78136 17.6453 4.04374L17.0341 3.4809C16.1591 3.71724 15.6413 4.98363 14.5464 5.23977Z" fill="#413B89"/>
<path fill-rule="evenodd" clip-rule="evenodd" d="M25.5217 10.8C26.9013 11.121 26.4276 11.3519 26.4001 12.5567C27.407 12.7898 27.8599 13.8198 28.0127 12.7194L28.4514 10.069C28.2183 9.95578 25.9021 9.21046 25.6679 9.19067C25.6679 10.0009 25.5217 10.058 25.5217 10.8Z" fill="#413B89"/>
<path fill-rule="evenodd" clip-rule="evenodd" d="M15.8633 27.1905L14.5464 28.2151C15.273 28.4085 16.3987 29.6925 16.8879 30.1168L19.3756 27.9216C19.1481 27.8006 18.9513 27.7369 18.7061 27.5676C18.3906 27.3532 18.3654 27.2499 18.0586 27.0443C17.6959 27.2884 17.4507 27.7083 17.0143 27.7369C16.4207 27.7786 16.4888 27.3565 15.8633 27.1905Z" fill="#413B89"/>
<path fill-rule="evenodd" clip-rule="evenodd" d="M26.4004 20.8982C26.6708 22.6428 26.7632 22.136 25.3759 22.8C25.5924 23.2474 25.6683 23.7377 25.6683 24.4105C26.2707 24.1202 27.6668 23.597 28.4517 23.5321L27.8636 20.1661C27.304 20.5409 27.1765 20.7179 26.4004 20.8982Z" fill="#413B89"/>
</svg>
