<svg width="34" height="34" viewBox="0 0 34 34" fill="none" xmlns="http://www.w3.org/2000/svg">
<path fill-rule="evenodd" clip-rule="evenodd" d="M11.766 16.8C11.766 20.0341 15.2409 22.9011 18.8356 21.5281C19.9723 21.095 20.9396 20.1463 21.4805 19.0492C22.1643 17.6586 22.1983 16.0129 21.5728 14.6025C21.2804 13.9407 20.8528 13.4208 20.313 12.936C17.1603 10.1053 11.766 12.2357 11.766 16.8Z" fill="#413B89"/>
<path fill-rule="evenodd" clip-rule="evenodd" d="M14.2538 10.2152C14.2538 11.0111 14.6661 10.2152 17.1802 10.2152C17.9992 10.2152 18.8291 10.3922 19.3755 10.6539C20.0647 9.35449 18.6807 8.77956 16.8878 7.58133C15.3817 8.88949 14.2538 8.81144 14.2538 10.2152Z" fill="#413B89"/>
<path fill-rule="evenodd" clip-rule="evenodd" d="M20.9851 11.2397V11.6783C21.7766 11.8894 22.8539 13.7098 23.1331 14.5068C23.2815 14.9322 23.4365 15.4687 23.4728 15.9227C25.0492 15.7897 24.7909 13.8143 24.7909 12.118C23.7542 11.8751 22.9166 10.9473 22.0097 10.9473C21.4864 10.9473 21.4919 11.1188 20.9851 11.2397Z" fill="#413B89"/>
<path fill-rule="evenodd" clip-rule="evenodd" d="M8.98529 12.1181C8.99738 12.6216 9.08862 12.6886 9.1249 13.1503C9.20955 14.2562 8.77642 15.5655 10.3034 15.9228C10.4968 15.5204 10.521 15.0389 10.7002 14.5629C11.6742 11.9829 12.702 12.3006 12.7911 11.2398C12.2524 11.0958 12.1007 10.4856 10.4232 11.5036C10.0351 11.7399 9.45689 12.0082 8.98529 12.1181Z" fill="#413B89"/>
<path fill-rule="evenodd" clip-rule="evenodd" d="M20.9851 22.2151C22.3339 22.9263 22.8462 22.2909 23.6817 21.838C24.8744 21.1905 24.7909 21.9787 24.7909 19.7274C24.7909 18.5984 24.5424 17.7651 23.4728 17.6783C23.3805 18.815 22.5923 20.3804 21.7568 21.2301C21.3907 21.6017 21.1236 21.6995 20.9851 22.2151Z" fill="#413B89"/>
<path fill-rule="evenodd" clip-rule="evenodd" d="M14.2538 23.3859C14.2538 24.1203 14.8266 24.5193 15.3037 24.8238L16.8878 25.8736C19.3469 24.2269 19.5217 24.7051 19.5217 22.9462C18.5345 22.9693 18.4894 23.3859 16.7416 23.3859C15.6972 23.3859 15.2179 22.9693 14.2538 22.9462V23.3859Z" fill="#413B89"/>
<path fill-rule="evenodd" clip-rule="evenodd" d="M8.98529 21.3367L11.6203 22.5075C12.5624 22.5075 12.4536 22.5724 12.7911 22.0689C12.6306 21.4665 12.2491 21.7028 11.2949 20.1968C10.9091 19.5889 10.4693 18.5984 10.4496 17.6783C9.89661 17.6893 9.87682 17.6618 9.56682 17.9685C9.37774 18.1543 9.18866 18.5137 9.14249 18.86C9.09192 19.2294 9.14579 19.7801 9.13699 20.1715C9.1205 20.8531 9.03146 20.7882 8.98529 21.3367Z" fill="#413B89"/>
<path fill-rule="evenodd" clip-rule="evenodd" d="M20.9851 23.9707C20.7806 24.8601 20.4563 25.2228 19.8286 25.7406C19.5197 26 19.5022 25.845 19.3757 26.3122C20.0903 26.6552 21.8162 26.7519 22.888 26.7519C23.1441 26.2199 23.2618 25.7999 23.5773 25.2426C24.017 24.4632 24.0587 24.5566 24.0587 23.3859C23.6025 23.6277 23.2398 23.8025 22.7165 23.9509C21.7513 24.2214 21.9569 23.9707 20.9851 23.9707Z" fill="#413B89"/>
<path fill-rule="evenodd" clip-rule="evenodd" d="M19.3757 7.28884C19.7869 7.90224 20.0034 7.76923 20.4311 8.2815C20.7916 8.71462 20.8763 9.14555 21.1324 9.62924C22.3109 9.0642 23.2651 9.88318 24.0587 10.069C24.0587 8.88172 24.017 9.03342 23.5355 8.25072C23.1892 7.68238 23.0793 7.20639 22.7418 6.70291C21.3149 7.0349 20.5179 6.52263 19.3757 7.28884Z" fill="#413B89"/>
<path fill-rule="evenodd" clip-rule="evenodd" d="M10.0097 9.92275C10.8496 9.8524 10.8045 9.16534 12.7909 9.62924C13.2296 7.74395 14.3102 8.02866 14.5465 7.14153C13.5242 6.64905 12.5051 6.97554 11.3267 6.70291C10.8858 7.36139 10.0097 9.08948 10.0097 9.92275Z" fill="#413B89"/>
<path fill-rule="evenodd" clip-rule="evenodd" d="M11.1805 26.7519C12.0236 26.7519 13.8584 26.6189 14.5465 26.4584V26.0198C13.1911 25.6592 12.9382 23.9707 12.6447 23.9707C11.9082 23.9707 11.5938 24.3708 10.0097 23.532C10.0097 25.0886 10.8749 25.4404 11.1805 26.7519Z" fill="#413B89"/>
<path fill-rule="evenodd" clip-rule="evenodd" d="M5.47302 16.8C8.12233 20.7541 7.41768 19.313 7.78815 18.0894C7.99262 17.4134 8.37847 17.2848 8.54666 16.6538C8.08716 15.9678 7.66832 15.9337 7.66832 14.166C6.86583 14.2342 6.35796 15.4775 5.47302 16.8Z" fill="#413B89"/>
<path fill-rule="evenodd" clip-rule="evenodd" d="M25.2295 16.8C25.4999 17.2001 25.7725 17.321 25.9726 17.8135C26.2233 18.4302 25.9748 18.8523 26.254 19.435C27.0356 19.2261 27.1939 18.3511 27.8041 17.4727C28.1108 17.0308 28.1756 17.1319 28.302 16.6538C27.9876 16.1811 27.6271 15.8436 27.3292 15.2862C27.0224 14.7179 26.8642 14.2287 26.1078 14.166C26.1078 15.9249 25.9297 15.7567 25.2295 16.8Z" fill="#413B89"/>
<path fill-rule="evenodd" clip-rule="evenodd" d="M5.32642 10.069C5.54188 10.9924 5.91234 12.1764 5.91234 13.2877C6.62359 13.0965 6.39054 12.8183 7.52172 12.5567C7.45576 11.7685 6.87423 10.9386 8.54626 10.8V9.04446L5.32642 10.069Z" fill="#413B89"/>
<path fill-rule="evenodd" clip-rule="evenodd" d="M5.32642 23.5322C6.56862 23.5596 7.53271 24.3204 8.54626 24.5567C8.37917 22.5439 9.02006 22.8561 7.52172 22.5076C7.30625 21.582 7.30625 21.9701 7.52172 21.0444L5.91234 20.3123C5.87607 21.9305 5.37698 22.9242 5.32642 23.5322Z" fill="#413B89"/>
<path fill-rule="evenodd" clip-rule="evenodd" d="M14.5464 5.23974C14.6365 5.57503 14.5376 5.38595 14.7739 5.59701L16.0096 6.26428C16.502 5.93449 17.0572 5.27602 17.9124 6.5567C18.4016 6.22691 18.6435 5.73772 19.3756 5.67836C19.258 5.23644 18.4522 4.78133 17.6453 4.04371L17.0341 3.48087C16.1591 3.71721 15.6413 4.9836 14.5464 5.23974Z" fill="#413B89"/>
<path fill-rule="evenodd" clip-rule="evenodd" d="M25.5217 10.8C26.9013 11.121 26.4276 11.3519 26.4001 12.5567C27.407 12.7897 27.8599 13.8198 28.0127 12.7194L28.4514 10.069C28.2183 9.95575 25.9021 9.21043 25.6679 9.19064C25.6679 10.0008 25.5217 10.058 25.5217 10.8Z" fill="#413B89"/>
<path fill-rule="evenodd" clip-rule="evenodd" d="M15.8633 27.1905L14.5464 28.215C15.273 28.4085 16.3987 29.6925 16.8879 30.1168L19.3756 27.9215C19.1481 27.8006 18.9513 27.7368 18.7061 27.5675C18.3906 27.3532 18.3654 27.2498 18.0586 27.0443C17.6959 27.2883 17.4507 27.7083 17.0143 27.7368C16.4207 27.7786 16.4888 27.3565 15.8633 27.1905Z" fill="#413B89"/>
<path fill-rule="evenodd" clip-rule="evenodd" d="M26.4004 20.8982C26.6708 22.6428 26.7632 22.136 25.3759 22.8C25.5924 23.2474 25.6683 23.7377 25.6683 24.4104C26.2707 24.1202 27.6668 23.5969 28.4517 23.5321L27.8636 20.166C27.304 20.5409 27.1765 20.7179 26.4004 20.8982Z" fill="#413B89"/>
</svg>
