<svg width="26" height="25" viewBox="0 0 26 25" fill="none" xmlns="http://www.w3.org/2000/svg">
<path fill-rule="evenodd" clip-rule="evenodd" d="M11.1223 20.8458C11.6525 21.4364 12.3332 21.7609 13.0395 21.7609H13.0405C13.7498 21.7609 14.4336 21.4364 14.9648 20.8448C15.2494 20.5305 15.7345 20.5049 16.0488 20.7885C16.364 21.072 16.3896 21.5582 16.1061 21.8724C15.279 22.7906 14.191 23.2962 13.0405 23.2962H13.0384C11.891 23.2952 10.805 22.7896 9.98104 21.8714C9.69752 21.5572 9.7231 21.071 10.0384 20.7885C10.3536 20.5039 10.8388 20.5295 11.1223 20.8458ZM13.0904 1.28949C17.6402 1.28949 20.6966 4.83309 20.6966 8.14228C20.6966 9.84448 21.1296 10.5661 21.5891 11.3317C22.0436 12.0871 22.5585 12.9449 22.5585 14.5662C22.2012 18.7086 17.8767 19.0464 13.0904 19.0464C8.30423 19.0464 3.97863 18.7086 3.62549 14.6317C3.62243 12.9449 4.13728 12.0871 4.59175 11.3317L4.75219 11.0617C5.14721 10.3827 5.4843 9.64422 5.4843 8.14228C5.4843 4.83309 8.54068 1.28949 13.0904 1.28949ZM13.0904 2.82484C9.51307 2.82484 7.01965 5.62738 7.01965 8.14228C7.01965 10.2703 6.42906 11.2539 5.90704 12.1219C5.4884 12.819 5.15778 13.3697 5.15778 14.5662C5.32872 16.4967 6.60306 17.511 13.0904 17.511C19.542 17.511 20.8563 16.4516 21.0262 14.4997C21.0231 13.3697 20.6925 12.819 20.2739 12.1219C19.7518 11.2539 19.1612 10.2703 19.1612 8.14228C19.1612 5.62738 16.6678 2.82484 13.0904 2.82484Z" fill="#1E2875"/>
</svg>
