<svg width="22" height="22" viewBox="0 0 22 22" fill="none" xmlns="http://www.w3.org/2000/svg">
<path fill-rule="evenodd" clip-rule="evenodd" d="M10.2387 3.57776H12.428C13.5682 3.57775 14.462 3.57775 15.1761 3.64565C15.904 3.71485 16.5 3.85834 17.0253 4.1803C17.5755 4.51745 18.0381 4.98003 18.3753 5.53021C18.6972 6.05559 18.8407 6.65158 18.9099 7.37943C18.9778 8.09352 18.9778 8.98736 18.9778 10.1275V10.8864C18.9778 11.698 18.9778 12.3344 18.9427 12.8484C18.907 13.3714 18.8333 13.8067 18.6665 14.2092C18.2515 15.2111 17.4555 16.0071 16.4537 16.4221C15.8812 16.6592 15.2292 16.7118 14.3366 16.7272C14.0243 16.7325 13.8266 16.7365 13.6758 16.7532C13.5349 16.7688 13.4803 16.7916 13.4484 16.8102C13.4147 16.8298 13.3687 16.8656 13.289 16.975C13.2027 17.0934 13.1052 17.257 12.9505 17.5183L12.565 18.1696C12.0149 19.0989 10.6517 19.0989 10.1016 18.1696L9.71613 17.5183C9.56151 17.257 9.46399 17.0934 9.37769 16.975C9.29795 16.8656 9.25202 16.8298 9.21831 16.8102C9.18635 16.7916 9.13174 16.7688 8.99087 16.7532C8.8401 16.7365 8.64233 16.7325 8.33008 16.7272C7.43744 16.7118 6.78547 16.6592 6.21304 16.4221C5.21115 16.0071 4.41515 15.2111 4.00015 14.2092C3.83342 13.8067 3.75966 13.3714 3.72397 12.8484C3.6889 12.3344 3.6889 11.698 3.6889 10.8864L3.6889 10.1275C3.6889 8.98736 3.6889 8.09352 3.75679 7.37943C3.826 6.65158 3.96949 6.05559 4.29144 5.53021C4.62859 4.98003 5.09117 4.51745 5.64135 4.1803C6.16674 3.85834 6.76272 3.71485 7.49058 3.64565C8.20467 3.57775 9.09851 3.57775 10.2387 3.57776ZM7.59154 4.70752C6.94176 4.76931 6.5283 4.88779 6.19869 5.08978C5.79203 5.33898 5.45012 5.68088 5.20092 6.08754C4.99893 6.41716 4.88045 6.83062 4.81867 7.4804C4.75613 8.13811 4.75557 8.98132 4.75557 10.1555V10.8666C4.75557 11.7023 4.75586 12.3023 4.78816 12.7758C4.82014 13.2445 4.8817 13.5501 4.98562 13.801C5.29236 14.5415 5.88071 15.1299 6.62124 15.4366C6.98791 15.5885 7.4557 15.6453 8.34846 15.6606L8.37109 15.661C8.65411 15.6659 8.90212 15.6702 9.10826 15.693C9.32977 15.7175 9.5464 15.7671 9.75458 15.8882C9.96101 16.0082 10.1099 16.1686 10.2397 16.3467C10.3596 16.5113 10.4829 16.7195 10.6225 16.9554L11.0195 17.6262C11.1566 17.8578 11.51 17.8578 11.6471 17.6262L12.0442 16.9554C12.1838 16.7195 12.307 16.5113 12.427 16.3467C12.5568 16.1686 12.7057 16.0082 12.9121 15.8882C13.1203 15.7671 13.3369 15.7175 13.5584 15.693C13.7645 15.6702 14.0126 15.6659 14.2956 15.661L14.3182 15.6606C15.211 15.6453 15.6788 15.5885 16.0455 15.4366C16.786 15.1299 17.3743 14.5415 17.6811 13.801C17.785 13.5501 17.8466 13.2445 17.8785 12.7758C17.9108 12.3023 17.9111 11.7023 17.9111 10.8666V10.1555C17.9111 8.98132 17.9106 8.13811 17.848 7.4804C17.7862 6.83062 17.6678 6.41716 17.4658 6.08754C17.2166 5.68088 16.8747 5.33898 16.468 5.08978C16.1384 4.88779 15.7249 4.76931 15.0752 4.70752C14.4174 4.64499 13.5742 4.64443 12.4 4.64443H10.2667C9.09247 4.64443 8.24926 4.64499 7.59154 4.70752ZM7.95557 9.08887C7.95557 8.79432 8.19435 8.55554 8.4889 8.55554H14.1778C14.4723 8.55554 14.7111 8.79432 14.7111 9.08887C14.7111 9.38342 14.4723 9.6222 14.1778 9.6222H8.4889C8.19435 9.6222 7.95557 9.38342 7.95557 9.08887ZM7.95557 11.5778C7.95557 11.2832 8.19435 11.0444 8.4889 11.0444H12.4C12.6946 11.0444 12.9333 11.2832 12.9333 11.5778C12.9333 11.8723 12.6946 12.1111 12.4 12.1111H8.4889C8.19435 12.1111 7.95557 11.8723 7.95557 11.5778Z" fill="#9197B3"/>
</svg>
