<svg width="22" height="22" viewBox="0 0 22 22" fill="none" xmlns="http://www.w3.org/2000/svg">
<path fill-rule="evenodd" clip-rule="evenodd" d="M18.9778 7.55556C18.9778 5.29733 17.1471 3.46667 14.8889 3.46667C12.6307 3.46667 10.8 5.29733 10.8 7.55556C10.8 8.20869 10.9535 8.8275 11.2269 9.37644C11.2331 9.38874 11.2355 9.39862 11.2362 9.4046C11.2365 9.4074 11.2365 9.40906 11.2365 9.40974L11.0249 10.2005C10.8269 10.9405 11.5039 11.6176 12.2439 11.4196L13.0347 11.208C13.0337 11.2082 13.034 11.208 13.0347 11.208C13.0354 11.2079 13.037 11.2079 13.0399 11.2083C13.0458 11.209 13.0557 11.2114 13.068 11.2175C13.617 11.4909 14.2358 11.6445 14.8889 11.6445C17.1471 11.6445 18.9778 9.81379 18.9778 7.55556ZM13.0354 11.2078L13.0347 11.208L13.0354 11.2078ZM14.8889 4.53334C16.558 4.53334 17.9111 5.88644 17.9111 7.55556C17.9111 9.22469 16.558 10.5778 14.8889 10.5778C14.4045 10.5778 13.9481 10.4642 13.5436 10.2627C13.3165 10.1496 13.0384 10.1028 12.7597 10.1774L12.0871 10.3573L12.2671 9.68474C12.3416 9.40604 12.2948 9.1279 12.1817 8.90088C11.9802 8.49635 11.8667 8.03998 11.8667 7.55556C11.8667 5.88644 13.2198 4.53334 14.8889 4.53334Z" fill="#9197B3"/>
<path fill-rule="evenodd" clip-rule="evenodd" d="M4.93865 7.1338C6.13336 5.93909 8.14946 6.02991 8.98133 7.52049L9.44285 8.34746C9.98608 9.32084 9.75459 10.549 8.95935 11.3539C8.94876 11.3685 8.89263 11.4502 8.88564 11.593C8.87671 11.7753 8.94145 12.1968 9.59455 12.8499C10.2474 13.5028 10.6689 13.5677 10.8513 13.5588C10.9942 13.5519 11.076 13.4957 11.0905 13.4851C11.8955 12.6899 13.1236 12.4584 14.097 13.0016L14.924 13.4631C16.4145 14.295 16.5054 16.3111 15.3106 17.5058C14.6716 18.1448 13.8219 18.7127 12.8233 18.7505C11.3436 18.8066 8.88651 18.4245 6.45324 15.9912C4.01997 13.5579 3.63783 11.1009 3.69393 9.62111C3.73178 8.62257 4.2996 7.77285 4.93865 7.1338ZM8.0499 8.04031C7.62393 7.27704 6.47926 7.10168 5.69289 7.88805C5.14154 8.43941 4.78309 9.04799 4.75983 9.66152C4.71305 10.8955 5.01771 13.0472 7.20749 15.237C9.39726 17.4267 11.5489 17.7314 12.7829 17.6846C13.3965 17.6614 14.005 17.3029 14.5564 16.7516C15.3428 15.9652 15.1674 14.8205 14.4041 14.3945L13.5772 13.933C13.0628 13.6459 12.3402 13.7439 11.8329 14.2511C11.7831 14.3009 11.4659 14.5968 10.9031 14.6242C10.3269 14.6522 9.62953 14.3934 8.84031 13.6041C8.05082 12.8147 7.79203 12.1171 7.82025 11.5408C7.84781 10.978 8.14379 10.6611 8.19331 10.6116C8.70056 10.1043 8.79851 9.3817 8.51142 8.86728L8.0499 8.04031Z" fill="#9197B3"/>
</svg>
