<svg width="42" height="16" viewBox="0 0 42 16" fill="none" xmlns="http://www.w3.org/2000/svg">
<path opacity="0.1" d="M8.26239 1.61398C5.29152 1.61398 2.692 2.91555 0.835205 4.96086L8.26239 14.0098L15.6896 4.96086C13.8328 2.91555 11.2333 1.61398 8.26239 1.61398Z" fill="#222222" fill-opacity="0.9"/>
<path d="M28.4327 1.61401L16.0541 14.0098H28.4327V1.61401Z" fill="#222222" fill-opacity="0.9"/>
<path d="M38.8446 1.23328H36.2232V2.54396H34.9125C34.43 2.54396 34.0388 2.98406 34.0388 3.52697V13.3571C34.0388 13.9 34.43 14.3401 34.9125 14.3401H40.1553C40.6378 14.3401 41.029 13.9 41.029 13.3571V3.52697C41.029 2.98406 40.6378 2.54396 40.1553 2.54396H38.8446V1.23328Z" fill="#222222" fill-opacity="0.9"/>
<path d="M34.0388 8.22372C34.0388 8.73343 34.0388 12.913 34.0388 13.4228C34.0388 13.9295 34.43 14.3402 34.9125 14.3402H40.1553C40.6378 14.3402 41.029 13.9295 41.029 13.4228C41.029 12.913 41.029 8.73343 41.029 8.22372H34.0388Z" fill="#222222" fill-opacity="0.9"/>
</svg>
